<svg width="80" height="80" viewBox="0 0 80 80" fill="none" xmlns="http://www.w3.org/2000/svg">
<path d="M38.0989 76.7132H21.5582C20.65 76.7132 19.915 75.9783 19.915 75.0701C19.915 74.1619 20.65 73.427 21.5582 73.427H38.0989C39.0071 73.427 39.742 74.1619 39.742 75.0701C39.742 75.9783 39.0071 76.7132 38.0989 76.7132Z" fill="#1689FC"/>
<path d="M61.2122 76.7132H44.6714C43.7632 76.7132 43.0283 75.9783 43.0283 75.0701C43.0283 74.1619 43.7632 73.427 44.6714 73.427H61.2122C62.1204 73.427 62.8553 74.1619 62.8553 75.0701C62.8553 75.9783 62.1204 76.7132 61.2122 76.7132Z" fill="#136EF1"/>
<path d="M43.0284 64.993V71.7845C43.0284 72.7046 42.3056 73.4276 41.3853 73.4276C40.4651 73.4276 39.7422 72.7046 39.7422 71.7845V64.993C39.7422 64.0727 40.4651 63.3499 41.3853 63.3499C42.3056 63.3499 43.0284 64.0727 43.0284 64.993Z" fill="#1689FC"/>
<path d="M43.0289 64.993V71.7845C43.0289 72.7046 42.306 73.4276 41.3857 73.4276V63.3499C42.306 63.3499 43.0289 64.0727 43.0289 64.993Z" fill="#136EF1"/>
<path d="M41.3854 70.1414C38.6577 70.1414 36.4561 72.343 36.4561 75.0707C36.4561 77.7982 38.6577 80.0001 41.3854 80.0001C44.1131 80.0001 46.3148 77.7982 46.3148 75.0707C46.3148 72.343 44.1131 70.1414 41.3854 70.1414Z" fill="#00C8C8"/>
<path d="M64.4987 80.0001C61.7805 80.0001 59.5693 77.7889 59.5693 75.0707C59.5693 72.3526 61.7805 70.1414 64.4987 70.1414C67.2168 70.1414 69.428 72.3526 69.428 75.0707C69.428 77.7889 67.2168 80.0001 64.4987 80.0001Z" fill="#00A1B2"/>
<path d="M64.4986 76.7132C63.5926 76.7132 62.8555 75.9761 62.8555 75.0701C62.8555 74.1641 63.5926 73.427 64.4986 73.427C65.4046 73.427 66.1417 74.1641 66.1417 75.0701C66.1417 75.9761 65.4046 76.7132 64.4986 76.7132Z" fill="#BFE1FF"/>
<path d="M18.2721 80.0001C15.554 80.0001 13.3428 77.7889 13.3428 75.0707C13.3428 72.3526 15.554 70.1414 18.2721 70.1414C20.9903 70.1414 23.2015 72.3526 23.2015 75.0707C23.2015 77.7889 20.9903 80.0001 18.2721 80.0001Z" fill="#00C8C8"/>
<path d="M18.272 76.7132C17.366 76.7132 16.6289 75.9761 16.6289 75.0701C16.6289 74.1641 17.366 73.427 18.272 73.427C19.178 73.427 19.9151 74.1641 19.9151 75.0701C19.9151 75.9761 19.178 76.7132 18.272 76.7132Z" fill="#E1F1FA"/>
<path d="M64.4984 37.0605H18.272C17.3518 37.0605 16.6289 37.7834 16.6289 38.7037V45.2761C16.6289 46.1962 17.3518 46.9193 18.272 46.9193H64.4984C65.4187 46.9193 66.1415 46.1962 66.1415 45.2761V38.7037C66.1415 37.7834 65.4187 37.0605 64.4984 37.0605Z" fill="#0053BF"/>
<path d="M64.5844 20.543H18.358C17.4377 20.543 16.7148 21.2658 16.7148 22.1861V28.7586C16.7148 29.6786 17.4377 30.4017 18.358 30.4017H64.5844C65.5046 30.4017 66.2275 29.6786 66.2275 28.7586V22.1861C66.2275 21.2658 65.5046 20.543 64.5844 20.543Z" fill="#0053BF"/>
<path d="M64.4984 56.7781H18.272C17.3518 56.7781 16.6289 57.5009 16.6289 58.4212V61.7074C16.6289 64.4349 18.8306 66.6368 21.5583 66.6368H61.2122C63.9399 66.6368 66.1415 64.4349 66.1415 61.7074V58.4212C66.1415 57.5009 65.4187 56.7781 64.4984 56.7781Z" fill="#0053BF"/>
<path d="M64.4985 43.6323H18.2721C15.5444 43.6323 13.3428 45.834 13.3428 48.5617V55.1342C13.3428 57.8616 15.5444 60.0635 18.2721 60.0635H64.4985C67.2262 60.0635 69.4279 57.8616 69.4279 55.1342V48.5617C69.4279 45.834 67.2262 43.6323 64.4985 43.6323Z" fill="#65B1FC"/>
<path d="M46.3151 75.0707C46.3151 77.7982 44.1134 80.0001 41.3857 80.0001V70.1414C44.1134 70.1414 46.3151 72.343 46.3151 75.0707Z" fill="#00A1B2"/>
<path d="M41.3853 76.7132C40.4793 76.7132 39.7422 75.9761 39.7422 75.0701C39.7422 74.1641 40.4793 73.427 41.3853 73.427C42.2913 73.427 43.0284 74.1641 43.0284 75.0701C43.0284 75.9761 42.2913 76.7132 41.3853 76.7132Z" fill="#E1F1FA"/>
<path d="M43.0289 75.0701C43.0289 74.1641 42.2918 73.427 41.3857 73.427V76.7132C42.2918 76.7132 43.0289 75.9761 43.0289 75.0701Z" fill="#BFE1FF"/>
<path d="M66.1421 38.7029V45.2754C66.1421 46.1954 65.4192 46.9185 64.4989 46.9185H41.3857V37.0598H64.4989C65.4192 37.0598 66.1421 37.7827 66.1421 38.7029Z" fill="#05377F"/>
<path d="M66.2336 20.0694V26.6955C66.2336 27.623 65.508 28.352 64.5844 28.352H41.3857V18.4128H64.5844C65.508 18.4128 66.2336 19.1416 66.2336 20.0694Z" fill="#05377F"/>
<path d="M66.1421 58.4205V61.7067C66.1421 64.4342 63.9404 66.6361 61.2127 66.6361H41.3857V56.7773H64.4989C65.4192 56.7773 66.1421 57.5002 66.1421 58.4205Z" fill="#05377F"/>
<path d="M69.4283 48.5617V55.1342C69.4283 57.8616 67.2266 60.0635 64.4989 60.0635H41.3857V43.6323H64.4989C67.2266 43.6323 69.4283 45.834 69.4283 48.5617Z" fill="#1689FC"/>
<path d="M64.4985 23.9146H18.2721C15.5444 23.9146 13.3428 26.1162 13.3428 28.8439V35.4164C13.3428 38.1438 15.5444 40.3457 18.2721 40.3457H64.4985C67.2262 40.3457 69.4279 38.1438 69.4279 35.4164V28.8439C69.4279 26.1162 67.2262 23.9146 64.4985 23.9146Z" fill="#65B1FC"/>
<path d="M69.4283 28.8439V35.4164C69.4283 38.1438 67.2266 40.3457 64.4989 40.3457H41.3857V23.9146H64.4989C67.2266 23.9146 69.4283 26.1162 69.4283 28.8439Z" fill="#1689FC"/>
<path d="M21.5582 33.7738C22.4656 33.7738 23.2013 33.0381 23.2013 32.1307C23.2013 31.2232 22.4656 30.4875 21.5582 30.4875C20.6507 30.4875 19.915 31.2232 19.915 32.1307C19.915 33.0381 20.6507 33.7738 21.5582 33.7738Z" fill="#E1F1FA"/>
<path d="M28.2408 33.7723C29.1482 33.7723 29.8839 33.0367 29.8839 32.1292C29.8839 31.2217 29.1482 30.4861 28.2408 30.4861C27.3333 30.4861 26.5977 31.2217 26.5977 32.1292C26.5977 33.0367 27.3333 33.7723 28.2408 33.7723Z" fill="#0053BF"/>
<path d="M34.813 33.7721C35.7205 33.7721 36.4562 33.0364 36.4562 32.129C36.4562 31.2215 35.7205 30.4858 34.813 30.4858C33.9056 30.4858 33.1699 31.2215 33.1699 32.129C33.1699 33.0364 33.9056 33.7721 34.813 33.7721Z" fill="#0053BF"/>
<path d="M61.2122 33.7738H44.6714C43.7632 33.7738 43.0283 33.0389 43.0283 32.1307C43.0283 31.2225 43.7632 30.4875 44.6714 30.4875H61.2122C62.1204 30.4875 62.8553 31.2225 62.8553 32.1307C62.8553 33.0389 62.1204 33.7738 61.2122 33.7738Z" fill="#05377F"/>
<path d="M64.4985 4.92407H18.2721C15.5444 4.92407 13.3428 7.12574 13.3428 9.85343V16.4259C13.3428 19.1534 15.5444 21.3553 18.2721 21.3553H64.4985C67.2262 21.3553 69.4279 19.1534 69.4279 16.4259V9.85343C69.4279 7.12574 67.2262 4.92407 64.4985 4.92407Z" fill="#65B1FC"/>
<path d="M69.4283 9.85343V16.4259C69.4283 19.1534 67.2266 21.3553 64.4989 21.3553H41.3857V4.92407H64.4989C67.2266 4.92407 69.4283 7.12574 69.4283 9.85343Z" fill="#1689FC"/>
<path d="M21.5582 14.7833C22.4656 14.7833 23.2013 14.0477 23.2013 13.1402C23.2013 12.2327 22.4656 11.4971 21.5582 11.4971C20.6507 11.4971 19.915 12.2327 19.915 13.1402C19.915 14.0477 20.6507 14.7833 21.5582 14.7833Z" fill="#E1F1FA"/>
<path d="M28.2408 14.7833C29.1482 14.7833 29.8839 14.0477 29.8839 13.1402C29.8839 12.2327 29.1482 11.4971 28.2408 11.4971C27.3333 11.4971 26.5977 12.2327 26.5977 13.1402C26.5977 14.0477 27.3333 14.7833 28.2408 14.7833Z" fill="#0053BF"/>
<path d="M34.813 14.784C35.7205 14.784 36.4562 14.0484 36.4562 13.1409C36.4562 12.2335 35.7205 11.4978 34.813 11.4978C33.9056 11.4978 33.1699 12.2335 33.1699 13.1409C33.1699 14.0484 33.9056 14.784 34.813 14.784Z" fill="#0053BF"/>
<path d="M61.2122 14.7833H44.6714C43.7632 14.7833 43.0283 14.0484 43.0283 13.1402C43.0283 12.232 43.7632 11.4971 44.6714 11.4971H61.2122C62.1204 11.4971 62.8553 12.232 62.8553 13.1402C62.8553 14.0484 62.1204 14.7833 61.2122 14.7833Z" fill="#05377F"/>
<path d="M21.5582 53.4916C22.4656 53.4916 23.2013 52.7559 23.2013 51.8484C23.2013 50.941 22.4656 50.2053 21.5582 50.2053C20.6507 50.2053 19.915 50.941 19.915 51.8484C19.915 52.7559 20.6507 53.4916 21.5582 53.4916Z" fill="#E1F1FA"/>
<path d="M28.2408 53.492C29.1482 53.492 29.8839 52.7564 29.8839 51.8489C29.8839 50.9415 29.1482 50.2058 28.2408 50.2058C27.3333 50.2058 26.5977 50.9415 26.5977 51.8489C26.5977 52.7564 27.3333 53.492 28.2408 53.492Z" fill="#0053BF"/>
<path d="M34.813 53.4916C35.7205 53.4916 36.4562 52.7559 36.4562 51.8484C36.4562 50.941 35.7205 50.2053 34.813 50.2053C33.9056 50.2053 33.1699 50.941 33.1699 51.8484C33.1699 52.7559 33.9056 53.4916 34.813 53.4916Z" fill="#0053BF"/>
<path d="M61.2122 53.4916H44.6714C43.7632 53.4916 43.0283 52.7566 43.0283 51.8484C43.0283 50.9402 43.7632 50.2053 44.6714 50.2053H61.2122C62.1204 50.2053 62.8553 50.9402 62.8553 51.8484C62.8553 52.7566 62.1204 53.4916 61.2122 53.4916Z" fill="#05377F"/>
</svg>
