<svg width="20" height="21" viewBox="0 0 20 21" fill="none" xmlns="http://www.w3.org/2000/svg">
<path d="M6.04401 16.2064L6.64735 16.5589C7.6648 17.1523 8.82201 17.4638 9.99985 17.4614C11.4683 17.4611 12.8956 16.9759 14.0601 16.0813C15.2246 15.1866 16.0611 13.9324 16.4397 12.5136C16.8183 11.0948 16.7179 9.59061 16.154 8.23471C15.59 6.87881 14.5942 5.74703 13.3211 5.01513C12.048 4.28323 10.5689 3.99215 9.1134 4.1871C7.65791 4.38205 6.3075 5.05211 5.27188 6.09324C4.23626 7.13437 3.57338 8.48831 3.38616 9.94482C3.19894 11.4013 3.49786 12.8789 4.23652 14.1481L4.58818 14.7514L4.04402 16.7523L6.04401 16.2064ZM1.66985 19.1281L2.79652 14.9881C2.05413 13.7155 1.6641 12.2681 1.66652 10.7948C1.66652 6.19226 5.39735 2.46143 9.99985 2.46143C14.6023 2.46143 18.3332 6.19226 18.3332 10.7948C18.3332 15.3973 14.6023 19.1281 9.99985 19.1281C8.52716 19.1305 7.08038 18.7408 5.80818 17.9989L1.66985 19.1281ZM6.99235 6.88476C7.10401 6.87643 7.21651 6.87643 7.32818 6.88143C7.37318 6.88476 7.41818 6.88976 7.46318 6.89476C7.59568 6.90976 7.74151 6.99059 7.79068 7.10226C8.03901 7.66559 8.28068 8.23309 8.51401 8.80226C8.56568 8.92893 8.53485 9.09143 8.43651 9.24976C8.3689 9.35683 8.29574 9.4603 8.21735 9.55976C8.12318 9.68059 7.92068 9.90226 7.92068 9.90226C7.92068 9.90226 7.83818 10.0006 7.86985 10.1231C7.88152 10.1698 7.91985 10.2373 7.95485 10.2939L8.00401 10.3731C8.21735 10.7289 8.50401 11.0898 8.85401 11.4298C8.95401 11.5264 9.05151 11.6256 9.15651 11.7181C9.54651 12.0623 9.98818 12.3431 10.4648 12.5514L10.469 12.5531C10.5398 12.5839 10.5757 12.6006 10.679 12.6448C10.7307 12.6664 10.784 12.6856 10.8382 12.6998C10.8942 12.714 10.9531 12.7113 11.0076 12.692C11.062 12.6728 11.1095 12.6377 11.144 12.5914C11.7473 11.8606 11.8023 11.8131 11.8073 11.8131V11.8148C11.8493 11.7757 11.8991 11.746 11.9534 11.7277C12.0077 11.7095 12.0653 11.7031 12.1223 11.7089C12.1723 11.7123 12.2232 11.7214 12.2698 11.7423C12.7123 11.9448 13.4365 12.2606 13.4365 12.2606L13.9215 12.4781C14.0032 12.5173 14.0773 12.6098 14.0798 12.6989C14.0832 12.7548 14.0882 12.8448 14.069 13.0098C14.0423 13.2256 13.9773 13.4848 13.9123 13.6206C13.8678 13.7133 13.8088 13.7983 13.7373 13.8723C13.6533 13.9605 13.5612 14.0409 13.4623 14.1123L13.3582 14.1873C13.2545 14.253 13.148 14.3142 13.039 14.3706C12.8245 14.4846 12.5875 14.55 12.3448 14.5623C12.1907 14.5706 12.0365 14.5823 11.8815 14.5739C11.8748 14.5739 11.4082 14.5014 11.4082 14.5014C10.2234 14.1898 9.12767 13.606 8.20818 12.7964C8.01985 12.6306 7.84568 12.4523 7.66735 12.2748C6.92568 11.5373 6.36568 10.7414 6.02568 9.98976C5.85166 9.62083 5.75765 9.21926 5.74985 8.81143C5.74641 8.30547 5.9118 7.81281 6.21985 7.41143C6.28068 7.33309 6.33818 7.25143 6.43735 7.15726C6.54318 7.05726 6.60985 7.00393 6.68235 6.96726C6.77874 6.91895 6.8839 6.89061 6.99152 6.88393L6.99235 6.88476Z" fill="#4D80BD"/>
</svg>
