<svg width="80" height="80" viewBox="0 0 80 80" fill="none" xmlns="http://www.w3.org/2000/svg">
<path d="M71.8041 17.0483H7.42773V57.436H71.8041V17.0483Z" fill="white"/>
<path d="M71.8041 17.0483H7.42773V27.1452H71.8041V17.0483Z" fill="#FF4F19"/>
<path d="M71.0508 12H8.17847C5.03377 12 2.47559 14.602 2.47559 17.8004V63.7467C2.47559 64.4443 3.02928 65.0088 3.71359 65.0088H75.518C76.2023 65.0088 76.756 64.4443 76.756 63.7467V17.8004C76.756 14.602 74.1966 12 71.0508 12ZM7.42762 56.174V18.3106C7.42762 17.6136 7.98193 17.0485 8.66562 17.0485H70.566C71.2497 17.0485 71.804 17.6136 71.804 18.3106V56.174C71.804 56.871 71.2497 57.4361 70.566 57.4361H8.66562C7.98193 57.4361 7.42762 56.871 7.42762 56.174Z" fill="#5C546A"/>
<path d="M77.9945 62.4844H1.23801C0.553699 62.4844 0 63.0489 0 63.7465C0 66.5332 2.22331 68.7998 4.95683 68.7998H74.2755C77.009 68.7998 79.2323 66.5332 79.2323 63.7465C79.2325 63.0489 78.6788 62.4844 77.9945 62.4844Z" fill="#B9BBC1"/>
<path d="M22.2839 23.3589H13.6179C12.9336 23.3589 12.3799 22.7945 12.3799 22.0968C12.3799 21.3992 12.9336 20.8347 13.6179 20.8347H22.2839C22.9683 20.8347 23.522 21.3992 23.522 22.0968C23.522 22.7945 22.9683 23.3589 22.2839 23.3589Z" fill="#FFD200"/>
<path d="M44.5678 23.3589H43.3298C42.6455 23.3589 42.0918 22.7945 42.0918 22.0968C42.0918 21.3992 42.6455 20.8347 43.3298 20.8347H44.5678C45.2521 20.8347 45.8058 21.3992 45.8058 22.0968C45.8058 22.7945 45.2521 23.3589 44.5678 23.3589Z" fill="white"/>
<path d="M50.7582 23.3589H49.5202C48.8359 23.3589 48.2822 22.7945 48.2822 22.0968C48.2822 21.3992 48.8359 20.8347 49.5202 20.8347H50.7582C51.4426 20.8347 51.9962 21.3992 51.9962 22.0968C51.9962 22.7945 51.4426 23.3589 50.7582 23.3589Z" fill="white"/>
<path d="M56.9487 23.3589H55.7107C55.0264 23.3589 54.4727 22.7945 54.4727 22.0968C54.4727 21.3992 55.0264 20.8347 55.7107 20.8347H56.9487C57.633 20.8347 58.1867 21.3992 58.1867 22.0968C58.1867 22.7945 57.633 23.3589 56.9487 23.3589Z" fill="white"/>
<path d="M63.1381 23.3589H61.9001C61.2158 23.3589 60.6621 22.7945 60.6621 22.0968C60.6621 21.3992 61.2158 20.8347 61.9001 20.8347H63.1381C63.8224 20.8347 64.3761 21.3992 64.3761 22.0968C64.3761 22.7945 63.8224 23.3589 63.1381 23.3589Z" fill="white"/>
<path d="M34.664 53.6497H13.6179C12.9342 53.6497 12.3799 53.0846 12.3799 52.3876V32.1938C12.3799 31.4968 12.9342 30.9316 13.6179 30.9316H34.664C35.3477 30.9316 35.902 31.4968 35.902 32.1938V52.3876C35.902 53.0846 35.3477 53.6497 34.664 53.6497Z" fill="#53DCFF"/>
<path d="M64.3764 33.4559H40.8542C40.1699 33.4559 39.6162 32.8914 39.6162 32.1938C39.6162 31.4961 40.1699 30.9316 40.8542 30.9316H64.3764C65.0607 30.9316 65.6144 31.4961 65.6144 32.1938C65.6144 32.8914 65.0607 33.4559 64.3764 33.4559Z" fill="#FF4F19"/>
<path d="M50.7583 43.5528H40.8542C40.1699 43.5528 39.6162 42.9883 39.6162 42.2907C39.6162 41.593 40.1699 41.0286 40.8542 41.0286H50.7583C51.4426 41.0286 51.9963 41.593 51.9963 42.2907C51.9963 42.9883 51.4426 43.5528 50.7583 43.5528Z" fill="#B9BBC1"/>
<path d="M50.7583 48.6016H40.8542C40.1699 48.6016 39.6162 48.0371 39.6162 47.3395C39.6162 46.6419 40.1699 46.0774 40.8542 46.0774H50.7583C51.4426 46.0774 51.9963 46.6419 51.9963 47.3395C51.9963 48.0371 51.4426 48.6016 50.7583 48.6016Z" fill="#B9BBC1"/>
<path d="M50.7583 53.65H40.8542C40.1699 53.65 39.6162 53.0855 39.6162 52.3878C39.6162 51.6902 40.1699 51.1257 40.8542 51.1257H50.7583C51.4426 51.1257 51.9963 51.6902 51.9963 52.3878C51.9963 53.0855 51.4426 53.65 50.7583 53.65Z" fill="#B9BBC1"/>
<path d="M65.6147 43.5528H55.7107C55.0264 43.5528 54.4727 42.9883 54.4727 42.2907C54.4727 41.593 55.0264 41.0286 55.7107 41.0286H65.6147C66.299 41.0286 66.8527 41.593 66.8527 42.2907C66.8527 42.9883 66.299 43.5528 65.6147 43.5528Z" fill="#B9BBC1"/>
<path d="M65.6147 48.6016H55.7107C55.0264 48.6016 54.4727 48.0371 54.4727 47.3395C54.4727 46.6419 55.0264 46.0774 55.7107 46.0774H65.6147C66.299 46.0774 66.8527 46.6419 66.8527 47.3395C66.8527 48.0371 66.299 48.6016 65.6147 48.6016Z" fill="#B9BBC1"/>
<path d="M65.6147 53.65H55.7107C55.0264 53.65 54.4727 53.0855 54.4727 52.3878C54.4727 51.6902 55.0264 51.1257 55.7107 51.1257H65.6147C66.299 51.1257 66.8527 51.6902 66.8527 52.3878C66.8527 53.0855 66.299 53.65 65.6147 53.65Z" fill="#B9BBC1"/>
<path d="M56.9483 38.5042H40.8542C40.1699 38.5042 39.6162 37.9397 39.6162 37.2421C39.6162 36.5445 40.1699 35.98 40.8542 35.98H56.9483C57.6326 35.98 58.1863 36.5445 58.1863 37.2421C58.1863 37.9397 57.6326 38.5042 56.9483 38.5042Z" fill="#E9001E"/>
<path d="M34.6645 65.0086H44.5686C45.9359 65.0086 47.0446 63.8784 47.0446 62.4844H32.1885C32.1885 63.8785 33.297 65.0086 34.6645 65.0086Z" fill="#8B8996"/>
</svg>
