<svg width="80" height="80" viewBox="0 0 80 80" fill="none" xmlns="http://www.w3.org/2000/svg">
<path d="M46.337 62.3154H34.7129V68.1092H46.337V62.3154Z" fill="#7E7E7E"/>
<path d="M37.2891 62.3154H34.7129V68.1092H37.2891V62.3154Z" fill="#5C5C5C"/>
<path d="M52.0923 71.4561C52.0923 71.7737 51.8335 72.0338 51.5172 72.0338H29.5312C29.2149 72.0338 28.9561 71.7737 28.9561 71.4561V68.5608C28.9561 68.2433 29.2149 67.9832 29.5312 67.9832H51.5171C51.8334 67.9832 52.0921 68.2433 52.0921 68.5608V71.4561H52.0923Z" fill="#B7B7B7"/>
<path d="M31.5322 71.4561V68.5608C31.5322 68.2433 31.7911 67.9832 32.1074 67.9832H29.5312C29.2149 67.9832 28.9561 68.2433 28.9561 68.5608V71.4561C28.9561 71.7737 29.2149 72.0338 29.5312 72.0338H32.1074C31.791 72.0338 31.5322 71.7735 31.5322 71.4561Z" fill="#5C5C5C"/>
<path d="M7.28613 20.5062C7.28613 19.1306 8.39648 18.0154 9.76617 18.0154H71.2816C72.6513 18.0154 73.7616 19.1306 73.7616 20.5062V59.8611C73.7616 61.2367 72.6513 62.3519 71.2816 62.3519H9.76616C8.39648 62.3519 7.28613 61.2367 7.28613 59.8611V20.5062Z" fill="#B7B7B7"/>
<path d="M12.7393 25.4302H70.5158V55.2921H12.7393V25.4302Z" fill="white"/>
<path d="M13.1699 54.8777V25.3042H10.5938V54.8777C10.5938 55.1276 10.7972 55.3318 11.0458 55.3318H13.622C13.3734 55.3319 13.1699 55.1276 13.1699 54.8777Z" fill="#D9EAFC"/>
<path d="M40.5234 60.9205C41.6468 60.9205 42.5575 60.0058 42.5575 58.8775C42.5575 57.7492 41.6468 56.8345 40.5234 56.8345C39.4 56.8345 38.4893 57.7492 38.4893 58.8775C38.4893 60.0058 39.4 60.9205 40.5234 60.9205Z" fill="#445EA0"/>
<path d="M70.0028 21.7261H11.0458C10.7972 21.7261 10.5938 21.9303 10.5938 22.1801V25.4363H70.4547V22.1801C70.4547 21.9303 70.2513 21.7261 70.0028 21.7261Z" fill="#5DC1D8"/>
<path d="M13.622 21.7261H11.0458C10.7972 21.7261 10.5938 21.9303 10.5938 22.1801V25.4363H13.1699V22.1801C13.1699 21.9303 13.3734 21.7261 13.622 21.7261Z" fill="#28A5A5"/>
<path d="M16.1321 24.9446C16.7153 24.9446 17.1881 24.4698 17.1881 23.884C17.1881 23.2983 16.7153 22.8235 16.1321 22.8235C15.5489 22.8235 15.0762 23.2983 15.0762 23.884C15.0762 24.4698 15.5489 24.9446 16.1321 24.9446Z" fill="#E28086"/>
<path d="M19.4895 24.9446C20.0727 24.9446 20.5455 24.4698 20.5455 23.884C20.5455 23.2983 20.0727 22.8235 19.4895 22.8235C18.9064 22.8235 18.4336 23.2983 18.4336 23.884C18.4336 24.4698 18.9064 24.9446 19.4895 24.9446Z" fill="#E28086"/>
<path d="M22.847 24.9446C23.4301 24.9446 23.9029 24.4698 23.9029 23.884C23.9029 23.2983 23.4301 22.8235 22.847 22.8235C22.2638 22.8235 21.791 23.2983 21.791 23.884C21.791 24.4698 22.2638 24.9446 22.847 24.9446Z" fill="#E28086"/>
<path d="M20.1517 30.7189H16.9971C16.51 30.7189 16.1152 30.3223 16.1152 29.8332C16.1152 29.344 16.51 28.9475 16.9971 28.9475H20.1517C20.6388 28.9475 21.0336 29.344 21.0336 29.8332C21.0336 30.3223 20.6388 30.7189 20.1517 30.7189Z" fill="#69CDFF"/>
<path d="M38.3434 30.7189H33.2959C32.8089 30.7189 32.4141 30.3223 32.4141 29.8332C32.4141 29.344 32.8089 28.9475 33.2959 28.9475H38.3434C38.8305 28.9475 39.2253 29.344 39.2253 29.8332C39.2253 30.3223 38.8305 30.7189 38.3434 30.7189Z" fill="#E28086"/>
<path d="M30.7722 30.7189H22.7803C22.2932 30.7189 21.8984 30.3223 21.8984 29.8332C21.8984 29.344 22.2932 28.9475 22.7803 28.9475H30.7722C31.2593 28.9475 31.6541 29.344 31.6541 29.8332C31.6541 30.3223 31.2593 30.7189 30.7722 30.7189Z" fill="#37C47A"/>
<path d="M25.3045 35.6656H16.9971C16.51 35.6656 16.1152 35.2691 16.1152 34.78C16.1152 34.2908 16.51 33.8943 16.9971 33.8943H25.3045C25.7915 33.8943 26.1863 34.2908 26.1863 34.78C26.1863 35.2691 25.7915 35.6656 25.3045 35.6656Z" fill="#69CDFF"/>
<path d="M38.3441 35.6656H35.8203C35.3333 35.6656 34.9385 35.2691 34.9385 34.78C34.9385 34.2908 35.3333 33.8943 35.8203 33.8943H38.3441C38.8312 33.8943 39.226 34.2908 39.226 34.78C39.226 35.2691 38.8312 35.6656 38.3441 35.6656Z" fill="#E28086"/>
<path d="M33.2956 35.6656H27.9326C27.4456 35.6656 27.0508 35.2691 27.0508 34.78C27.0508 34.2908 27.4456 33.8943 27.9326 33.8943H33.2956C33.7827 33.8943 34.1775 34.2908 34.1775 34.78C34.1775 35.2691 33.7827 35.6656 33.2956 35.6656Z" fill="#37C47A"/>
<path d="M20.1517 40.6207H16.9971C16.51 40.6207 16.1152 40.2242 16.1152 39.735C16.1152 39.2459 16.51 38.8494 16.9971 38.8494H20.1517C20.6388 38.8494 21.0336 39.2459 21.0336 39.735C21.0337 40.2242 20.6388 40.6207 20.1517 40.6207Z" fill="#69CDFF"/>
<path d="M38.3434 40.6207H33.2959C32.8089 40.6207 32.4141 40.2242 32.4141 39.735C32.4141 39.2459 32.8089 38.8494 33.2959 38.8494H38.3434C38.8305 38.8494 39.2253 39.2459 39.2253 39.735C39.2253 40.2242 38.8305 40.6207 38.3434 40.6207Z" fill="#E28086"/>
<path d="M30.7722 40.6207H22.7803C22.2932 40.6207 21.8984 40.2242 21.8984 39.735C21.8984 39.2459 22.2932 38.8494 22.7803 38.8494H30.7722C31.2593 38.8494 31.6541 39.2459 31.6541 39.735C31.6541 40.2242 31.2593 40.6207 30.7722 40.6207Z" fill="#37C47A"/>
<path d="M18.8898 45.5631H16.9971C16.51 45.5631 16.1152 45.1666 16.1152 44.6774C16.1152 44.1883 16.51 43.7917 16.9971 43.7917H18.8898C19.3768 43.7917 19.7717 44.1883 19.7717 44.6774C19.7718 45.1666 19.3768 45.5631 18.8898 45.5631Z" fill="#69CDFF"/>
<path d="M38.3438 45.5631H28.459C27.972 45.5631 27.5771 45.1666 27.5771 44.6774C27.5771 44.1883 27.972 43.7917 28.459 43.7917H38.3438C38.8308 43.7917 39.2256 44.1883 39.2256 44.6774C39.2256 45.1666 38.8308 45.5631 38.3438 45.5631Z" fill="#E28086"/>
<path d="M25.9351 45.5631H21.5185C21.0315 45.5631 20.6367 45.1666 20.6367 44.6774C20.6367 44.1883 21.0315 43.7917 21.5185 43.7917H25.9351C26.4222 43.7917 26.817 44.1883 26.817 44.6774C26.817 45.1666 26.4222 45.5631 25.9351 45.5631Z" fill="#37C47A"/>
<path d="M18.5745 50.5099H16.9971C16.51 50.5099 16.1152 50.1134 16.1152 49.6242C16.1152 49.1351 16.51 48.7385 16.9971 48.7385H18.5745C19.0615 48.7385 19.4563 49.1351 19.4563 49.6242C19.4563 50.1134 19.0615 50.5099 18.5745 50.5099Z" fill="#69CDFF"/>
<path d="M38.3441 50.5099H35.8203C35.3333 50.5099 34.9385 50.1134 34.9385 49.6242C34.9385 49.1351 35.3333 48.7385 35.8203 48.7385H38.3441C38.8312 48.7385 39.226 49.1351 39.226 49.6242C39.226 50.1134 38.8312 50.5099 38.3441 50.5099Z" fill="#E28086"/>
<path d="M33.2963 50.5099H21.2031C20.7161 50.5099 20.3213 50.1134 20.3213 49.6242C20.3213 49.1351 20.7161 48.7385 21.2031 48.7385H33.2962C33.7832 48.7385 34.178 49.1351 34.178 49.6242C34.178 50.1134 33.7833 50.5099 33.2963 50.5099Z" fill="#37C47A"/>
<path d="M43.8994 25.2998H70.5156V55.2922H43.8994V25.2998Z" fill="#9DC6FB"/>
<path d="M52.8103 42.9901C52.5816 42.9901 52.3528 42.9024 52.1783 42.7271L48.7052 39.2388C48.5375 39.0704 48.4434 38.8421 48.4434 38.604C48.4434 38.366 48.5375 38.1375 48.7052 37.9693L52.1783 34.4809C52.5274 34.1304 53.0933 34.1304 53.4425 34.4809C53.7916 34.8315 53.7916 35.3999 53.4425 35.7506L50.6013 38.6042L53.4425 41.4576C53.7916 41.8082 53.7916 42.3766 53.4425 42.7273C53.2678 42.9025 53.0391 42.9901 52.8103 42.9901Z" fill="#30579D"/>
<path d="M60.1829 42.9902C59.9542 42.9902 59.7254 42.9026 59.5509 42.7273C59.2018 42.3767 59.2018 41.8083 59.5509 41.4576L62.3921 38.6042L59.5509 35.7506C59.2018 35.4 59.2018 34.8316 59.5509 34.4809C59.9 34.1304 60.4659 34.1304 60.815 34.4809L64.2882 37.9693C64.4559 38.1376 64.55 38.366 64.55 38.604C64.55 38.8421 64.4559 39.0705 64.2882 39.2388L60.815 42.7271C60.6405 42.9026 60.4116 42.9902 60.1829 42.9902Z" fill="#30579D"/>
<path d="M55.1741 44.9918C55.108 44.9918 55.041 44.9844 54.9739 44.969C54.4928 44.8584 54.1919 44.3769 54.302 43.8936L56.8042 32.9101C56.9142 32.4268 57.3935 32.1245 57.8749 32.2353C58.3561 32.3459 58.657 32.8274 58.5468 33.3107L56.0446 44.2941C55.9498 44.71 55.5815 44.9918 55.1741 44.9918Z" fill="#30579D"/>
<path d="M0 30.7639L1.16505 47.2522L8.287 49.6034L15.409 47.2522L16.574 30.7639H0Z" fill="#FF7816"/>
<path d="M16.5741 30.7639L15.4091 47.2522L8.28711 49.6034V30.7639H16.5741Z" fill="#FF4B00"/>
<path d="M13.4642 35.7698H5.32004L5.51782 38.5294H13.2664L12.7938 45.2115L8.28755 46.7238L3.78134 45.2115L3.6275 42.9817H5.82565L5.86958 43.5889L8.28755 44.3946L10.7055 43.5889L10.9033 40.7372H3.46263L2.95703 33.562H13.6181L13.4642 35.7698Z" fill="#ECECF1"/>
<path d="M71.9582 34.3583C76.3851 34.3583 79.9739 33.0524 79.9739 31.4416C79.9739 29.8308 76.3851 28.5249 71.9582 28.5249C67.5312 28.5249 63.9424 29.8308 63.9424 31.4416C63.9424 33.0524 67.5312 34.3583 71.9582 34.3583Z" fill="#74B4F0"/>
<path d="M79.9739 42.3035V48.0345C79.9739 49.6464 76.3906 50.9512 71.9582 50.9512C67.5257 50.9512 63.9424 49.6464 63.9424 48.043V42.312C63.9424 43.9239 67.5257 45.2287 71.9582 45.2287C76.3906 45.2287 79.9739 43.9153 79.9739 42.3035Z" fill="#1A75DB"/>
<path d="M79.9739 31.4387V37.1271C79.9739 38.739 76.3906 40.0438 71.9582 40.0438C67.5257 40.0438 63.9424 38.739 63.9424 37.1271V31.4387C63.9424 33.0506 67.5257 34.3554 71.9582 34.3554C76.3906 34.3554 79.9739 33.0421 79.9739 31.4387Z" fill="#1A75DB"/>
<path d="M76.6121 48.0738C77.0154 48.0738 77.3423 47.7454 77.3423 47.3404C77.3423 46.9353 77.0154 46.6069 76.6121 46.6069C76.2088 46.6069 75.8818 46.9353 75.8818 47.3404C75.8818 47.7454 76.2088 48.0738 76.6121 48.0738Z" fill="#D2D3DA"/>
<path d="M76.6121 37.2005C77.0154 37.2005 77.3423 36.8721 77.3423 36.4671C77.3423 36.062 77.0154 35.7336 76.6121 35.7336C76.2088 35.7336 75.8818 36.062 75.8818 36.4671C75.8818 36.8721 76.2088 37.2005 76.6121 37.2005Z" fill="#D2D3DA"/>
<path d="M66.4898 31.4414C66.4898 29.9916 69.4108 28.7891 73.2318 28.5673C72.8158 28.5417 72.3912 28.5332 71.9582 28.5332C67.5342 28.5332 63.9424 29.838 63.9424 31.4499C63.9424 33.0618 67.5257 34.3666 71.9582 34.3666C72.3912 34.3666 72.8158 34.3581 73.2318 34.3325C69.4108 34.0937 66.4898 32.8912 66.4898 31.4414Z" fill="#5594C6"/>
<path d="M66.4986 48.0345V44.4356C64.9277 43.9068 63.9512 43.1478 63.9512 42.3035V48.0345C63.9512 49.6464 67.5345 50.9512 71.9585 50.9512C72.3915 50.9512 72.8246 50.9427 73.2406 50.9171C69.4196 50.6868 66.4986 49.4843 66.4986 48.0345Z" fill="#145288"/>
<path d="M63.9512 31.4387V37.1271C63.9512 37.9714 64.9277 38.7305 66.4986 39.2592V33.5708C64.9277 33.0335 63.9512 32.2745 63.9512 31.4387Z" fill="#145288"/>
<path d="M71.9581 37.6168C70.9901 37.6168 70.0221 37.5571 69.0541 37.4291C68.7739 37.395 68.5786 37.1307 68.621 36.8492C68.655 36.5678 68.9182 36.3716 69.1984 36.4143C70.1155 36.5337 71.0411 36.6019 71.9581 36.5934C72.6969 36.5934 73.4356 36.5593 74.1743 36.474C74.4545 36.4399 74.7093 36.6445 74.7348 36.926C74.7687 37.2074 74.5649 37.4633 74.2847 37.4888C73.512 37.5741 72.7308 37.6168 71.9581 37.6168Z" fill="#A7CEF3"/>
<path d="M71.9581 48.4901C70.9901 48.4901 70.0221 48.4304 69.0541 48.3024C68.7739 48.2683 68.5786 48.0039 68.621 47.7225C68.655 47.4411 68.9182 47.2449 69.1984 47.2876C70.1155 47.407 71.0411 47.4752 71.9581 47.4667C72.6969 47.4667 73.4356 47.4325 74.1743 47.3473C74.4545 47.3217 74.7008 47.5264 74.7263 47.8078C74.7517 48.0892 74.5564 48.3366 74.2762 48.3621C73.512 48.4474 72.7308 48.4901 71.9581 48.4901Z" fill="#A7CEF3"/>
<path d="M71.9754 39.8696C67.5515 39.8696 63.9512 38.5733 63.9512 36.9614V42.4793C63.9512 44.0911 67.5515 45.396 71.9754 45.396C76.3994 45.396 79.9997 44.0911 79.9997 42.4793V36.9614C79.9997 38.5733 76.3994 39.8696 71.9754 39.8696Z" fill="#74B4F0"/>
<path d="M76.6121 42.6329C77.0154 42.6329 77.3423 42.3045 77.3423 41.8995C77.3423 41.4944 77.0154 41.166 76.6121 41.166C76.2088 41.166 75.8818 41.4944 75.8818 41.8995C75.8818 42.3045 76.2088 42.6329 76.6121 42.6329Z" fill="#D2D3DA"/>
<path d="M63.9512 36.9614V42.4793C63.9512 43.3236 64.9277 44.0826 66.4986 44.6114V39.0935C64.9277 38.5562 63.9512 37.8057 63.9512 36.9614Z" fill="#5594C6"/>
<path d="M71.9581 43.0472C70.9901 43.0472 70.0221 42.9875 69.0541 42.8595C68.7739 42.8169 68.5786 42.5611 68.621 42.2796C68.6635 42.0067 68.9182 41.8106 69.19 41.8447C70.107 41.9641 71.0326 42.0323 71.9496 42.0238C72.6884 42.0238 73.4271 41.9897 74.1658 41.9044C74.4461 41.8703 74.7008 42.0749 74.7263 42.3564C74.7602 42.6378 74.5564 42.8937 74.2762 42.9192C73.512 43.0131 72.7308 43.0472 71.9581 43.0472Z" fill="#AFD1EE"/>
<path d="M31.3237 12.5515L30.0472 27.4187C28.1556 28.8928 25.7802 29.77 23.2004 29.77C20.6206 29.77 18.2452 28.8928 16.3536 27.4187L15.0771 12.5515H31.3237Z" fill="#006BC0"/>
<path d="M23.1992 13.9495V29.4762L28.5395 27.962L29.7308 13.9495H23.1992Z" fill="#0096DC"/>
<path d="M27.9181 20.0214H24.0665L28.0911 17.9643L28.2651 15.8962H18.1338L18.3111 18.0047H22.378L18.4759 19.9643L18.6574 22.1242H25.6181L25.39 24.6966L23.1994 25.2925L20.9176 24.6508L20.8606 23.0466H18.735L19.0009 26.2092L23.1994 27.4009L27.3979 26.2092L27.9182 20.0211L27.9181 20.0214Z" fill="white"/>
<path d="M19.2401 10.2612V8.79446H21.3394V8H18.4795V11.0557H21.3394V10.2612H19.2401Z" fill="#222123"/>
<path d="M22.5689 9.19552V8.8288H24.6568V8.79446V8H21.7969V9.89448H23.8467V10.2612H21.7969V11.0557H24.6568V10.2612V9.19552H22.5689Z" fill="#222123"/>
<path d="M25.8316 9.19552V8.8288H27.9194V8.79446V8H25.0596V9.89448H27.1094V10.2612H25.0596V11.0557H27.9194V10.2612V9.19552H25.8316Z" fill="#222123"/>
<path d="M61.3459 18.7391C61.3459 19.8288 61.1844 20.8808 60.8837 21.8719C60.8837 21.8723 60.8837 21.8723 60.8833 21.8728C60.5364 23.0164 60.0052 24.0789 59.3235 25.0253V25.0257C58.3516 26.3753 57.0746 27.4891 55.5947 28.265C55.1587 28.4938 54.7052 28.6932 54.2369 28.8602C53.8572 28.9961 53.4675 29.1105 53.0691 29.203H53.0687C52.2922 29.3832 51.4844 29.4783 50.6534 29.4783C48.9186 29.4783 47.2807 29.0636 45.8322 28.3272C44.478 27.639 43.2891 26.6699 42.3425 25.496C41.4819 24.43 40.8211 23.1952 40.4161 21.8487C40.1202 20.8646 39.9609 19.8205 39.9609 18.7391C39.9609 12.8081 44.7481 8 50.6534 8C56.5587 8 61.3459 12.8081 61.3459 18.7391Z" fill="#002C53"/>
<path d="M54.333 13.6421V17.6611C54.333 18.6072 53.5695 19.374 52.6276 19.374H48.5284C47.3434 19.374 46.383 20.339 46.383 21.5291V23.503H45.0427C44.8 23.503 44.567 23.4548 44.3488 23.3577C43.6959 22.549 43.1946 21.6123 42.8873 20.5907C42.8632 20.3387 42.8506 20.0696 42.8506 19.7837C42.8506 17.2867 43.8322 16.0643 45.0427 16.0643H50.6761V15.4844H46.9269V13.6422C46.9269 12.7067 48.585 11.9482 50.6301 11.9482C52.6753 11.9482 54.333 12.7067 54.333 13.6421Z" fill="#3876AC"/>
<path d="M48.5418 14.4816C48.9181 14.4816 49.2232 14.1752 49.2232 13.7972C49.2232 13.4192 48.9181 13.1128 48.5418 13.1128C48.1654 13.1128 47.8604 13.4192 47.8604 13.7972C47.8604 14.1752 48.1654 14.4816 48.5418 14.4816Z" fill="#F2F2F2"/>
<path d="M58.4785 19.5714C58.4785 19.9465 58.4563 20.293 58.4146 20.6105C58.4146 20.6109 58.4146 20.6109 58.4143 20.6112C58.151 21.4788 57.7481 22.2849 57.2309 23.0028V23.0031C56.9449 23.195 56.6247 23.2904 56.2867 23.2904H50.6533V23.8707H54.4022V25.4605C54.0714 25.6341 53.7274 25.7854 53.3722 25.9121C53.0841 26.0152 52.7884 26.102 52.4862 26.1721H52.4859C51.8968 26.3088 51.284 26.381 50.6536 26.381C49.3375 26.381 48.095 26.0664 46.9961 25.5077V21.6939C46.9961 20.7479 47.7599 19.9807 48.7018 19.9807H52.801C53.986 19.9807 54.9465 19.0161 54.9465 17.826V15.8521H56.2867C57.4971 15.852 58.4785 17.0491 58.4785 19.5714Z" fill="#F7CD00"/>
<path d="M53.4701 25.5574C53.4701 25.6868 53.4344 25.8078 53.3725 25.9106C53.0844 26.0136 52.7888 26.1004 52.4865 26.1706H52.4862C52.2617 26.0589 52.1074 25.8261 52.1074 25.5574C52.1074 25.1793 52.4124 24.873 52.7888 24.873C53.1652 24.873 53.4701 25.1793 53.4701 25.5574Z" fill="#F2F2F2"/>
</svg>
