<svg width="48" height="49" viewBox="0 0 48 49" fill="none" xmlns="http://www.w3.org/2000/svg">
<rect y="0.794922" width="48" height="48" rx="10" fill="white"/>
<g clip-path="url(#clip0_42_1852)">
<path d="M13 13.7949H17L19.68 27.1849C19.7714 27.6453 20.0219 28.0589 20.3875 28.3532C20.7532 28.6476 21.2107 28.8039 21.68 28.7949H31.4C31.8693 28.8039 32.3268 28.6476 32.6925 28.3532C33.0581 28.0589 33.3086 27.6453 33.4 27.1849L35 18.7949H18M22 33.7949C22 34.3472 21.5523 34.7949 21 34.7949C20.4477 34.7949 20 34.3472 20 33.7949C20 33.2426 20.4477 32.7949 21 32.7949C21.5523 32.7949 22 33.2426 22 33.7949ZM33 33.7949C33 34.3472 32.5523 34.7949 32 34.7949C31.4477 34.7949 31 34.3472 31 33.7949C31 33.2426 31.4477 32.7949 32 32.7949C32.5523 32.7949 33 33.2426 33 33.7949Z" stroke="#2160AD" stroke-width="2" stroke-linecap="round" stroke-linejoin="round"/>
</g>
<defs>
<clipPath id="clip0_42_1852">
<rect width="24" height="24" fill="white" transform="translate(12 12.7949)"/>
</clipPath>
</defs>
</svg>
