<svg width="80" height="81" viewBox="0 0 80 81" fill="none" xmlns="http://www.w3.org/2000/svg">
<path d="M55.2427 76.0877H24.7568C24.7568 76.0877 29.9552 72.1045 29.9552 64.3237H50.0443C50.0443 72.1045 55.2427 76.0877 55.2427 76.0877Z" fill="#9DC6FB"/>
<path d="M50.0449 64.3237H45.4844C45.4844 72.1045 50.6827 76.0877 50.6827 76.0877H55.2433C55.2433 76.0877 50.0449 72.1045 50.0449 64.3237Z" fill="#6B8AF7"/>
<path d="M77.4901 65.1347H2.50976C1.12366 65.1347 0 64.0116 0 62.6255V16.1357C0 14.7496 1.12366 13.626 2.50976 13.626H77.4901C78.8762 13.626 79.9999 14.7496 79.9999 16.1357V62.6255C79.9999 64.0116 78.8762 65.1347 77.4901 65.1347Z" fill="#410891"/>
<path d="M77.4906 13.626H72.6621C74.0482 13.626 75.1713 14.7496 75.1713 16.1357V62.6256C75.1713 64.0117 74.0482 65.1348 72.6621 65.1348H77.4906C78.8767 65.1348 80.0004 64.0117 80.0004 62.6256V16.1357C80.0004 14.7496 78.8767 13.626 77.4906 13.626Z" fill="#410890"/>
<path d="M4.8291 59.6803V19.0791C4.8291 18.7336 5.10864 18.4541 5.4541 18.4541H74.5459C74.8914 18.4541 75.1709 18.7336 75.1709 19.0791V59.6803C75.1709 60.0252 74.8914 60.3053 74.5459 60.3053H5.4541C5.10864 60.3053 4.8291 60.0252 4.8291 59.6803Z" fill="white"/>
<path d="M60.7648 80.1035H19.2358C17.9022 80.1035 16.8213 79.0226 16.8213 77.689C16.8213 76.3553 17.9022 75.2744 19.2358 75.2744H60.7648C62.0984 75.2744 63.1793 76.3553 63.1793 77.689C63.1793 79.0226 62.0984 80.1035 60.7648 80.1035Z" fill="#410891"/>
<path d="M60.7643 75.2744H55.915C57.248 75.2744 58.329 76.356 58.329 77.689C58.329 79.0226 57.248 80.1035 55.915 80.1035H60.7643C62.0973 80.1035 63.1788 79.0226 63.1788 77.689C63.1788 76.3553 62.0979 75.2744 60.7643 75.2744Z" fill="#410890"/>
<path d="M64.2051 3.69287C64.2051 5.02649 63.1241 6.10742 61.7905 6.10742C60.4569 6.10742 59.376 5.02649 59.376 3.69287C59.376 2.35925 60.4569 1.27832 61.7905 1.27832C63.1241 1.27832 64.2051 2.35925 64.2051 3.69287Z" fill="#FF2C5C"/>
<path d="M42.4141 3.69287C42.4141 5.02649 41.3331 6.10742 39.9995 6.10742C38.6659 6.10742 37.585 5.02649 37.585 3.69287C37.585 2.35925 38.6659 1.27832 39.9995 1.27832C41.3331 1.27832 42.4141 2.35925 42.4141 3.69287Z" fill="#FF2C5C"/>
<path d="M20.624 3.69287C20.624 5.02649 19.5431 6.10742 18.2095 6.10742C16.8759 6.10742 15.7949 5.02649 15.7949 3.69287C15.7949 2.35925 16.8759 1.27832 18.2095 1.27832C19.5431 1.27832 20.624 2.35925 20.624 3.69287Z" fill="#FF2C5C"/>
<path d="M65.3771 3.68994C65.3771 1.7124 63.7682 0.103516 61.7907 0.103516C59.8131 0.103516 58.2042 1.7124 58.2042 3.68994C58.2042 5.25733 59.215 6.59155 60.6188 7.07862V8.79554H49.7588C49.1112 8.79554 48.5869 9.32044 48.5869 9.96741V27.9978C48.5869 28.6448 49.1112 29.1697 49.7588 29.1697C50.4058 29.1697 50.9307 28.6448 50.9307 27.9978V11.1393H61.7907C62.4382 11.1393 62.9625 10.615 62.9625 9.96741V7.07862C64.3663 6.59155 65.3771 5.25733 65.3771 3.68994ZM61.7907 4.93262C61.1052 4.93262 60.548 4.37537 60.548 3.68994C60.548 3.00452 61.1052 2.44727 61.7907 2.44727C62.4761 2.44727 63.0333 3.00452 63.0333 3.68994C63.0333 4.37537 62.4761 4.93262 61.7907 4.93262Z" fill="#331268"/>
<path d="M39.9995 0.103516C38.022 0.103516 36.4131 1.7124 36.4131 3.68994C36.4131 5.25733 37.4238 6.59156 38.8276 7.07862V23.408C38.8276 24.0556 39.3525 24.5798 39.9995 24.5798C40.6471 24.5798 41.1714 24.0556 41.1714 23.408V7.07862C42.5752 6.59156 43.5859 5.25733 43.5859 3.68994C43.5859 1.7124 41.9771 0.103516 39.9995 0.103516ZM39.9995 4.93262C39.3141 4.93262 38.7568 4.37537 38.7568 3.68994C38.7568 3.00452 39.3141 2.44727 39.9995 2.44727C40.6849 2.44727 41.2422 3.00452 41.2422 3.68994C41.2422 4.37537 40.6849 4.93262 39.9995 4.93262Z" fill="#331268"/>
<path d="M30.242 8.79554H19.3814V7.07862C20.7852 6.59156 21.7959 5.25733 21.7959 3.68994C21.7959 1.7124 20.187 0.103516 18.2095 0.103516C16.2319 0.103516 14.623 1.7124 14.623 3.68994C14.623 5.25733 15.6338 6.59156 17.0376 7.07862V9.96741C17.0376 10.615 17.5625 11.1393 18.2095 11.1393H29.0701V27.9978C29.0701 28.6448 29.5944 29.1697 30.242 29.1697C30.8889 29.1697 31.4138 28.6448 31.4138 27.9978V9.96741C31.4138 9.32044 30.8889 8.79554 30.242 8.79554ZM18.2095 2.44727C18.8949 2.44727 19.4522 3.00452 19.4522 3.68994C19.4522 4.37537 18.8949 4.93262 18.2095 4.93262C17.5247 4.93262 16.9668 4.37537 16.9668 3.68994C16.9668 3.00452 17.5247 2.44727 18.2095 2.44727Z" fill="#331268"/>
<path d="M55.6138 30.2878V48.7937C55.6138 49.1562 55.4063 49.4846 55.0797 49.6408L50.8579 51.658L40.4044 56.6513C40.2763 56.7124 40.1371 56.7423 39.9998 56.7423C39.8624 56.7423 39.7233 56.7124 39.5951 56.6513L24.9204 49.6408C24.5939 49.4846 24.3857 49.1562 24.3857 48.7937V30.2878C24.3857 30.0998 24.4419 29.9216 24.542 29.772C24.6329 29.6329 24.7623 29.5169 24.9204 29.4424L35.5204 24.3784L39.5951 22.4313C39.8514 22.308 40.1481 22.308 40.4044 22.4313L55.0797 29.4424C55.2372 29.5169 55.3672 29.6329 55.4575 29.772C55.5576 29.9216 55.6138 30.0998 55.6138 30.2878Z" fill="#FF2C5C"/>
<path d="M39.9998 37.1555V56.7417C39.8624 56.7417 39.7233 56.7118 39.5951 56.6508L24.9204 49.6403C24.5939 49.484 24.3857 49.1557 24.3857 48.7931V30.2872C24.3857 30.0992 24.4419 29.921 24.542 29.7715L39.9998 37.1555Z" fill="#4FB1F5"/>
<path d="M55.614 30.2872V48.7931C55.614 49.1557 55.4065 49.484 55.08 49.6403L50.8582 51.6575L40.4047 56.6508C40.2765 56.7118 40.1373 56.7417 40 56.7417V37.1555L50.7843 32.0042L55.4578 29.7715C55.5579 29.921 55.614 30.0992 55.614 30.2872Z" fill="#FFD659"/>
<path d="M55.4577 29.772L50.7842 32.0047L35.5205 24.3784L39.5952 22.4313C39.8516 22.308 40.1482 22.308 40.4045 22.4313L55.0798 29.4424C55.2373 29.5169 55.3673 29.6329 55.4577 29.772Z" fill="#E62753"/>
<path d="M55.6139 30.2872V48.7931C55.6139 49.1556 55.4064 49.484 55.0798 49.6403L50.858 51.6575L50.7842 32.0042L55.4576 29.7715C55.5577 29.921 55.6139 30.0992 55.6139 30.2872Z" fill="#FFBD54"/>
</svg>
