<svg width="91" height="36" viewBox="0 0 91 36" fill="none" xmlns="http://www.w3.org/2000/svg">
<path d="M36.8943 19.5672C36.9207 16.5218 36.9075 12.815 36.9075 9.76304C36.9075 6.71109 36.914 3.65893 36.901 0.606979C36.901 0.191659 36.9999 0.0664137 37.4284 0.0728995C39.5182 0.0925809 41.6142 0.0793863 43.7105 0.0793863C44.6928 0.0793863 45.6487 0.237507 46.5715 0.553974C48.8523 1.33854 50.3026 2.87413 50.6388 5.30008C51.0803 8.51037 49.9005 11.1338 46.8287 12.3008C45.8068 12.6897 44.7389 12.8546 43.6448 12.881C42.9528 12.8942 42.2604 12.9006 41.5684 12.8745C41.1991 12.8613 41.0938 12.9865 41.1003 13.3491C41.1135 15.2013 41.0871 17.715 41.12 19.5672H36.8943ZM41.1065 6.42079C41.1065 7.26441 41.113 8.10176 41.1001 8.93888C41.0936 9.21576 41.1725 9.34101 41.4758 9.33452C42.2997 9.31484 43.1172 9.35421 43.9346 9.31484C45.4112 9.23567 46.3735 8.25362 46.4724 6.76388C46.5844 5.13569 45.8001 4.00849 44.33 3.68532C43.3545 3.47419 42.359 3.62582 41.3769 3.57997C41.0869 3.56678 41.1068 3.758 41.1068 3.94922C41.1068 4.77315 41.1068 5.59709 41.1065 6.42079Z" fill="#2160AD"/>
<path d="M5.43103 19.5675C5.44422 14.6434 5.43103 9.13706 5.45071 4.21941C5.45071 3.72515 5.34537 3.5536 4.81777 3.5668C3.40049 3.60616 1.97673 3.5668 0.552965 3.58648C0.157326 3.59297 -0.013991 3.5205 0.0123998 3.07231C0.0517625 2.2155 0.032081 1.35176 0.0188856 0.488237C0.0123997 0.184966 0.104544 0.0729189 0.427497 0.0796284C5.16041 0.0861143 9.89354 0.0861143 14.62 0.0796284C15.0156 0.0796284 15.0749 0.237749 15.0485 0.646584C15.0022 1.41125 14.989 2.18262 15.0485 2.94706C15.0878 3.44804 15.0022 3.60616 14.5343 3.59967C13.0774 3.57328 11.6141 3.60616 10.1572 3.57999C9.72871 3.57351 9.59027 3.66565 9.59698 4.12727C9.62337 6.61919 9.61017 9.10418 9.61017 11.5961C9.61017 14.088 9.60369 17.074 9.61666 19.5657L5.43103 19.5675Z" fill="#2160AD"/>
<path d="M83.155 34.4508C83.1702 33.1402 83.1517 31.3401 83.1669 30.0303C83.1709 29.6828 83.0794 29.3411 82.9009 29.0425C81.9596 27.4662 81.0247 25.8863 80.0908 24.3058C79.6549 23.5684 78.8848 22.4962 78.4489 21.7588C78.3738 21.6318 78.3058 21.5005 78.1848 21.2825C79.2208 21.2825 80.1954 21.2764 81.1694 21.2865C81.4034 21.2892 81.4304 21.5356 81.5148 21.6844C81.9453 22.4475 82.7079 23.5467 83.1391 24.3199C83.5978 25.1427 84.0604 25.9751 84.5345 26.8259C84.9919 26.012 85.4202 25.2514 85.8464 24.4905C85.8798 24.4312 85.9129 24.3722 85.946 24.3129C86.3794 23.5425 86.9842 22.4338 87.3972 21.6528C87.5475 21.3688 87.7182 21.2549 88.0463 21.2634C88.9603 21.2878 89.8748 21.2719 90.7896 21.2719L90.712 21.3972L90.544 21.6394C90.5089 21.6884 90.4778 21.7306 90.4501 21.7673C90.2246 22.0643 89.8552 22.7192 89.666 23.0404C89.4108 23.4738 89.1643 23.8972 88.9228 24.3152C87.9951 25.9199 87.138 27.4434 86.1171 29.1503C85.9654 29.4035 85.9075 29.6524 85.9095 29.9418C85.9187 31.2888 85.9003 33.1047 85.9227 34.4508" fill="#2091D0"/>
<path d="M67.761 32.9767C67.7849 32.4769 67.6295 31.9687 67.292 31.5579C66.6307 30.7534 65.4625 30.5025 64.6324 31.1202C64.0374 31.4959 64.2501 31.4959 64.0374 31.4959C63.6776 31.4959 63.3363 31.4952 62.967 31.4952C63.1735 30.6302 64.2931 29.8141 65.3773 29.738C67.0744 29.6202 68.4333 30.6293 68.7708 32.2592C68.8115 32.4554 68.8307 32.6502 68.8357 32.8416C68.8368 32.8908 68.8319 32.9432 68.831 32.9919" fill="#2160AD"/>
<path d="M68.8349 32.7424C68.8403 32.9846 68.8172 33.23 68.7671 33.4708C68.4299 35.0999 67.0716 36.1088 65.3755 35.9907C64.2914 35.9149 63.1725 35.0992 62.9661 34.2346C63.3353 34.2346 63.6764 34.2339 64.0362 34.2339C64.2489 34.2339 64.0362 34.2339 64.6309 34.6094C65.4607 35.2269 66.6284 34.976 67.2892 34.1718C67.6265 33.7611 67.7819 33.2532 67.758 32.7536" fill="#2160AD"/>
<path d="M39.3299 27.8551C39.3299 25.8449 39.3473 23.834 39.3171 21.8239C39.3097 21.3423 39.4797 21.2708 39.9026 21.2721C43.4797 21.2871 47.0577 21.2795 50.6348 21.2815C51.4428 21.2815 51.9812 21.7375 52.0035 22.4288C52.0272 23.1709 51.4849 23.6706 50.5963 23.6741C48.1475 23.6844 45.699 23.6777 43.2503 23.6777C42.5397 23.6777 42.1846 24.0373 42.1846 24.7564C42.1846 26.9967 42.1939 29.2368 42.1758 31.4769C42.1723 31.8841 42.2474 32.055 42.7021 32.0313C43.5211 31.9888 44.3453 32.0611 45.1468 31.8068C47.0038 31.2172 48.0353 29.6832 47.9637 27.5766C47.9436 26.9708 48.1397 26.4738 48.6651 26.1667C49.1649 25.8746 49.689 25.8957 50.187 26.2079C50.5905 26.4608 50.7746 26.8359 50.809 27.3076C51.0666 30.8934 48.8675 33.7009 45.3181 34.2649C43.4375 34.5637 41.5373 34.3459 39.6472 34.4078C39.2702 34.4201 39.3314 34.167 39.3314 33.9438C39.3308 31.9139 39.3314 29.8843 39.3314 27.8551H39.3299Z" fill="#2160AD"/>
<path d="M74.2155 34.463C74.2341 32.4609 74.224 29.9354 74.224 27.9329V27.2561C73.876 27.577 73.6072 27.7958 73.3719 28.0463C72.5909 28.8767 71.8068 29.7049 71.0556 30.5621C70.7657 30.8929 70.5957 30.858 70.3236 30.5509C69.5683 29.6975 68.7889 28.6837 68.0092 27.8526C67.7813 27.6095 67.5208 27.3965 67.1929 27.0933V29.5915C66.3645 29.3258 65.5956 29.2092 64.8121 29.4181C64.6249 29.4682 64.5334 29.4318 64.5334 29.2164C64.5368 26.5845 64.5355 23.9532 64.5355 21.3139L64.5348 21.3146C66.4768 23.221 68.3807 25.2511 70.2556 27.1286C70.5837 27.4567 70.738 27.5314 71.101 27.155C72.8293 25.3667 74.5944 23.6137 76.3492 21.8507C76.4751 21.7241 76.5719 21.5554 76.7696 21.4982C76.9079 21.6445 76.8401 21.8198 76.8408 21.9746C76.8455 25.9417 76.8347 30.4961 76.8564 34.4626L74.2155 34.463Z" fill="#2091D0"/>
<path d="M23.7364 31.0499C23.7364 31.8638 23.733 32.6126 23.7388 33.3616C23.7402 33.5338 23.6726 33.6326 23.5172 33.6988C21.0183 34.763 17.2037 34.9873 14.8699 32.2256C13.0769 30.1045 12.7604 27.6585 13.8402 25.131C14.9155 22.6133 16.9794 21.4193 19.6733 21.2826C20.9038 21.2202 22.0903 21.4354 23.2278 21.9301C23.5391 22.0654 23.6854 22.2206 23.6686 22.5802C23.6382 23.242 23.6601 23.9063 23.6601 24.6416C22.6335 24.167 21.6085 23.8687 20.5169 23.7743C18.0487 23.5618 16.0919 25.2674 15.9985 27.7611C15.9088 30.1584 17.7673 31.9897 20.2219 31.9248C21.4296 31.8924 22.5756 31.599 23.7364 31.0499Z" fill="#2091D0"/>
<path d="M6.27923 21.2726L12.6884 34.4327C11.7316 34.4327 10.8478 34.4287 9.96434 34.4354C9.73241 34.4367 9.70468 34.4358 9.63803 34.292C9.39402 33.7675 9.03529 33.0653 8.8132 32.5314C8.70384 32.2691 8.54952 32.1801 8.26503 32.1834C6.93789 32.1986 5.61007 32.1971 4.2827 32.1848C4.00403 32.1821 3.84322 32.2507 3.73766 32.5307C3.548 33.0362 3.29819 33.5193 3.09847 34.0214C2.98194 34.3146 2.83433 34.4595 2.48499 34.4459C1.68834 34.415 0.890356 34.4358 0 34.4358L6.28013 21.2719L6.27923 21.2726ZM4.76422 30.2137H7.78441C7.28097 28.9834 6.7952 27.7952 6.28058 26.5367C5.76059 27.7974 5.26811 28.9915 4.76422 30.2137Z" fill="#2091D0"/>
<path d="M24.8298 34.4302C26.9288 30.0307 29.096 25.7116 31.214 21.2721C31.7281 22.345 32.1853 23.1235 32.6426 24.0783C34.1894 27.31 35.7272 30.7238 37.2912 33.9469C37.518 34.4141 37.6828 34.4405 36.9524 34.4405C36.2987 34.4141 35.6429 34.4194 34.9892 34.4405C34.7025 34.4496 34.5535 34.3535 34.4448 34.0867C34.2261 33.5517 33.9593 32.8579 33.7345 32.3247C33.6323 32.0823 33.4914 32.0004 33.2291 32.0024C31.8829 32.015 30.5363 32.0181 29.1901 32.0004C28.8911 31.9964 28.7677 32.117 28.6663 32.3726C28.4601 32.8919 28.1081 33.5714 27.8921 34.0873C27.7979 34.3128 27.6879 34.4431 27.4065 34.4367C26.5853 34.4156 25.7629 34.4295 24.8298 34.4295V34.4302ZM31.2149 26.351C30.6911 27.628 30.1999 28.8241 29.7079 30.0249H32.7209C32.217 28.7966 31.7322 27.6124 31.2149 26.351Z" fill="#2091D0"/>
<path d="M15.0574 19.5565C18.2223 12.9228 21.3303 6.69411 24.5239 0C25.299 1.61767 25.9886 2.77171 26.6783 4.21113C29.0105 9.08405 31.3296 13.9619 33.6877 18.8221C34.0297 19.5266 34.2782 19.5664 33.1769 19.5664C32.1911 19.5268 31.2025 19.5346 30.2167 19.5664C29.7844 19.5802 29.5598 19.4351 29.3959 19.0327C29.066 18.226 28.6636 17.4499 28.3248 16.6457C28.1707 16.28 27.9583 16.1568 27.5626 16.1599C25.5328 16.1789 23.5024 16.1836 21.4724 16.157C21.0213 16.151 20.8354 16.3328 20.6824 16.7184C20.3716 17.5014 20.0007 18.2616 19.6749 19.0394C19.5329 19.3792 19.3669 19.576 18.9426 19.5661C17.7045 19.5344 16.4644 19.5554 15.0574 19.5554V19.5563V19.5565ZM24.525 7.63836C23.735 9.564 22.9948 11.3675 22.2525 13.1782H26.7955C26.0364 11.3262 25.3051 9.5403 24.525 7.63836Z" fill="#2160AD"/>
<path d="M59.8439 34.0494C57.9769 34.0494 56.1101 34.0514 54.243 34.0487C53.3692 34.0474 52.9217 33.652 52.9226 32.8927C52.9233 32.1546 53.3905 31.723 54.2511 31.7209C57.985 31.7138 61.7188 31.7129 65.4533 31.7209C66.3021 31.723 66.7581 32.1723 66.7445 32.9282C66.7313 33.6537 66.2793 34.0471 65.4448 34.0478C63.5778 34.0505 61.711 34.0485 59.8439 34.0485V34.0494Z" fill="#2160AD"/>
<path d="M58.1759 28.8638C56.8487 28.8638 55.5209 28.8665 54.1936 28.8625C53.4121 28.8598 52.9568 28.4823 52.9237 27.8234C52.8894 27.1422 53.3486 26.6331 54.1177 26.6273C56.8282 26.6063 59.5393 26.6076 62.2501 26.6246C63.0139 26.6291 63.4983 27.1388 63.4699 27.8024C63.4422 28.4514 62.9652 28.86 62.2139 28.8627C60.8678 28.8672 59.522 28.8641 58.1757 28.8641L58.1759 28.8638Z" fill="#2160AD"/>
<path d="M57.3069 21.3652C58.3335 21.3652 59.3603 21.3612 60.3864 21.3666C61.1481 21.3706 61.6227 21.8107 61.6272 22.5025C61.6317 23.203 61.183 23.6919 60.4273 23.6992C58.3185 23.7198 56.2092 23.7209 54.1004 23.6966C53.3447 23.6881 52.909 23.1931 52.9227 22.4866C52.9372 21.7756 53.3841 21.3697 54.1709 21.3663C55.216 21.3623 56.2611 21.365 57.3062 21.365L57.3069 21.3652Z" fill="#2160AD"/>
</svg>
