<svg width="20" height="21" viewBox="0 0 20 21" fill="none" xmlns="http://www.w3.org/2000/svg">
<path d="M14.1668 18.2949V16.6283C14.1668 15.7442 13.8156 14.8964 13.1905 14.2712C12.5654 13.6461 11.7176 13.2949 10.8335 13.2949H4.16683C3.28277 13.2949 2.43493 13.6461 1.80981 14.2712C1.18469 14.8964 0.833496 15.7442 0.833496 16.6283V18.2949M19.1668 18.2949V16.6283C19.1663 15.8897 18.9205 15.1722 18.468 14.5885C18.0155 14.0048 17.3819 13.5879 16.6668 13.4033M13.3335 3.40326C14.0505 3.58684 14.686 4.00384 15.1399 4.58851C15.5937 5.17319 15.84 5.89228 15.84 6.63242C15.84 7.37256 15.5937 8.09166 15.1399 8.67633C14.686 9.261 14.0505 9.678 13.3335 9.86159M10.8335 6.62826C10.8335 8.4692 9.34111 9.96159 7.50016 9.96159C5.65921 9.96159 4.16683 8.4692 4.16683 6.62826C4.16683 4.78731 5.65921 3.29492 7.50016 3.29492C9.34111 3.29492 10.8335 4.78731 10.8335 6.62826Z" stroke="#4D80BD" stroke-width="1.66667" stroke-linecap="round" stroke-linejoin="round"/>
</svg>
